<svg width="131" height="131" viewBox="0 0 131 131" fill="none" xmlns="http://www.w3.org/2000/svg">
<g filter="url(#filter0_d_913_15474)">
<path d="M4.01924 53.9999C4.01017 28.5441 4.00564 15.8162 11.9109 7.90812C19.8162 0 32.5442 0 58 0H72.4745C97.9304 0 110.658 0 118.569 7.90812C126.48 15.8162 126.485 28.5442 126.494 54L126.499 68.4745C126.508 93.9303 126.512 106.658 118.607 114.566C110.702 122.474 97.974 122.474 72.5181 122.474H58.0436C32.5878 122.474 19.8599 122.474 11.9489 114.566C4.038 106.658 4.03347 93.9303 4.0244 68.4745L4.01924 53.9999Z" fill="url(#paint0_radial_913_15474)"/>
<path fill-rule="evenodd" clip-rule="evenodd" d="M40.9925 20.7526C36.58 22.3295 32.8499 26.1523 30.7817 29.2576C30.3245 29.9439 29.3976 30.1297 28.7113 29.6726C28.0249 29.2155 27.8391 28.2885 28.2962 27.6022C30.5661 24.1942 34.7516 19.8118 39.9875 17.9406C42.6381 16.9933 45.5789 16.6844 48.6466 17.5051C51.7101 18.3248 54.7798 20.2385 57.7486 23.5358C58.3003 24.1486 58.2508 25.0927 57.638 25.6445C57.0252 26.1963 56.0811 26.1468 55.5293 25.5339C52.8638 22.5734 50.271 21.031 47.8748 20.3899C45.4826 19.7499 43.166 19.9758 40.9925 20.7526Z" fill="black"/>
<path fill-rule="evenodd" clip-rule="evenodd" d="M91.9997 23.1139C96.4121 24.6909 100.142 28.5137 102.211 31.6189C102.668 32.3052 103.595 32.491 104.281 32.0339C104.967 31.5768 105.153 30.6498 104.696 29.9635C102.426 26.5556 98.2406 22.1731 93.0047 20.3019C90.354 19.3546 87.4133 19.0458 84.3456 19.8665C81.282 20.6861 78.2124 22.5998 75.2436 25.8971C74.6918 26.51 74.7413 27.4541 75.3542 28.0058C75.967 28.5576 76.9111 28.5081 77.4629 27.8953C80.1284 24.9348 82.7212 23.3923 85.1174 22.7513C87.5096 22.1113 89.8262 22.3372 91.9997 23.1139Z" fill="black"/>
<path fill-rule="evenodd" clip-rule="evenodd" d="M103.634 46.9287C101.247 40.1407 95.383 34.4342 84.5445 33.3117C80.1411 32.8557 76.709 33.857 74.113 35.8781C71.5388 37.8823 69.8879 40.8102 68.8716 44.0362C66.8464 50.4647 67.2434 58.3827 68.2047 63.6926L68.4355 64.9671L69.6077 64.4162C70.7064 63.8998 72.5458 63.5705 74.9639 63.4554C77.3497 63.3418 80.1878 63.4403 83.2071 63.7062C89.2479 64.2381 95.9294 65.4322 101.024 66.8754C102.232 67.2176 103.348 67.5518 104.343 67.8648C104.867 68.0298 105.426 67.7384 105.591 67.214C105.756 66.6896 105.465 66.1307 104.94 65.9657C104.252 65.7492 103.509 65.5233 102.719 65.2919C105.056 60.2213 105.824 53.1606 103.634 46.9287ZM100.778 64.7417C95.6644 63.3599 89.2267 62.2377 83.3817 61.723C80.3056 61.4521 77.3726 61.3476 74.8692 61.4668C73.007 61.5555 71.317 61.7701 69.9684 62.166C69.1919 57.0859 69.02 50.1907 70.7705 44.6344C71.7114 41.6477 73.1831 39.1252 75.3361 37.449C77.4673 35.7897 80.367 34.8806 84.3394 35.292C94.4402 36.338 99.634 41.554 101.755 47.5889C103.804 53.4152 103.017 60.0948 100.778 64.7417Z" fill="black"/>
<path fill-rule="evenodd" clip-rule="evenodd" d="M26.5491 40.1479C30.3694 34.0506 37.345 29.7732 48.1652 31.0613C52.5611 31.5846 55.689 33.3161 57.777 35.8585C59.8476 38.3796 60.8143 41.5989 61.0964 44.9693C61.6586 51.6859 59.5304 59.3228 57.4251 64.2914L56.9198 65.4839L55.8974 64.6888C54.9391 63.9435 53.2171 63.2178 50.8835 62.5738C48.581 61.9384 45.7907 61.4105 42.7869 61.006C36.7769 60.1967 29.9964 59.8925 24.7093 60.1803C23.4557 60.2485 22.2932 60.3291 21.2539 60.4157C20.7061 60.4613 20.2249 60.0542 20.1793 59.5064C20.1336 58.9585 20.5407 58.4774 21.0886 58.4317C21.8075 58.3718 22.5826 58.3149 23.4039 58.2628C22.2384 52.8023 23.0418 45.7456 26.5491 40.1479ZM25.4187 58.1529C30.7105 57.9292 37.2375 58.2499 43.0526 59.033C46.1129 59.4451 48.9972 59.988 51.4131 60.6547C53.2103 61.1507 54.8117 61.7316 56.0403 62.4143C57.9147 57.6293 59.5985 50.9406 59.1125 45.1354C58.8513 42.0149 57.9703 39.2305 56.2386 37.122C54.5243 35.0347 51.8954 33.5103 47.9298 33.0382C37.8462 31.8378 31.6326 35.7841 28.2361 41.2049C24.9572 46.4382 24.2559 53.1274 25.4187 58.1529Z" fill="black"/>
<path d="M84.4419 34.3018C67.6904 32.567 67.2903 53.0546 69.1842 63.5153C74.32 61.1015 90.9719 62.9931 101.295 65.9177C106.559 56.1466 105.381 36.4703 84.4419 34.3018Z" fill="white"/>
<path d="M48.0471 32.0496C64.7701 34.0405 60.6557 54.1147 56.5082 63.903C52.0288 60.419 35.3685 58.603 24.6549 59.1863C21.6686 48.497 27.1434 29.5611 48.0471 32.0496Z" fill="white"/>
<path d="M54.2078 50.192C54.2078 54.0403 51.0882 57.16 47.2399 57.16C43.3916 57.16 40.272 54.0403 40.272 50.192C40.272 46.3438 43.3916 43.2241 47.2399 43.2241C51.0882 43.2241 54.2078 46.3438 54.2078 50.192Z" fill="black"/>
<path d="M88.2078 51.192C88.2078 55.0403 85.0882 58.1599 81.2399 58.1599C77.3916 58.1599 74.272 55.0403 74.272 51.192C74.272 47.3438 77.3916 44.2241 81.2399 44.2241C85.0882 44.2241 88.2078 47.3438 88.2078 51.192Z" fill="black"/>
<path d="M52.2534 48.215C52.2534 49.3145 51.3621 50.2058 50.2626 50.2058C49.1631 50.2058 48.2718 49.3145 48.2718 48.215C48.2718 47.1154 49.1631 46.2241 50.2626 46.2241C51.3621 46.2241 52.2534 47.1154 52.2534 48.215Z" fill="white"/>
<path d="M81.24 50.1964C81.24 51.2959 80.3486 52.1872 79.2491 52.1872C78.1496 52.1872 77.2583 51.2959 77.2583 50.1964C77.2583 49.0969 78.1496 48.2056 79.2491 48.2056C80.3486 48.2056 81.24 49.0969 81.24 50.1964Z" fill="white"/>
<path d="M86.1663 74.2626C100.682 74.0755 108.732 72.7109 106.79 72.7359C98.5326 117.143 59.1069 106.125 40.3068 104.454C17.8072 102.455 20.5229 86.9541 21.808 82.4543C23.0932 77.9544 34.5304 65.0443 44.3081 67.9537C49.2472 69.4234 68.7612 74.4868 86.1663 74.2626Z" fill="black"/>
<path fill-rule="evenodd" clip-rule="evenodd" d="M71.5653 86.2798C71.7214 84.0835 70.6609 81.968 68.2784 80.2973C62.5581 76.2858 51.3833 76.3576 43.3188 80.4577C35.2542 84.5578 33.3539 91.1336 39.0742 95.1452C42.6838 97.6765 48.4651 98.5819 54.2664 97.8753C55.1304 98.5822 56.3321 99.1953 57.8644 99.6675C64.2115 101.623 73.8264 100.42 79.3398 96.9797C84.8533 93.5394 84.1774 89.165 77.8303 87.2092C75.9624 86.6336 73.8115 86.3316 71.5653 86.2798Z" fill="#FF5757"/>
</g>
<defs>
<filter id="filter0_d_913_15474" x="0" y="0" width="130.518" height="131.674" filterUnits="userSpaceOnUse" color-interpolation-filters="sRGB">
<feFlood flood-opacity="0" result="BackgroundImageFix"/>
<feColorMatrix in="SourceAlpha" type="matrix" values="0 0 0 0 0 0 0 0 0 0 0 0 0 0 0 0 0 0 127 0" result="hardAlpha"/>
<feOffset dy="4"/>
<feGaussianBlur stdDeviation="2"/>
<feComposite in2="hardAlpha" operator="out"/>
<feColorMatrix type="matrix" values="0 0 0 0 0 0 0 0 0 0 0 0 0 0 0 0 0 0 0.25 0"/>
<feBlend mode="normal" in2="BackgroundImageFix" result="effect1_dropShadow_913_15474"/>
<feBlend mode="normal" in="SourceGraphic" in2="effect1_dropShadow_913_15474" result="shape"/>
</filter>
<radialGradient id="paint0_radial_913_15474" cx="0" cy="0" r="1" gradientUnits="userSpaceOnUse" gradientTransform="translate(65.2591 61.2372) rotate(89.9796) scale(61.2372 61.2372)">
<stop stop-color="#FFE8AE"/>
<stop offset="1" stop-color="#FFB802"/>
</radialGradient>
</defs>
</svg>
