<svg width="154" height="154" viewBox="0 0 154 154" fill="none" xmlns="http://www.w3.org/2000/svg">
<path d="M21.3553 51.2547C29.3686 27.093 33.3752 15.0122 43.3707 9.99547C53.3662 4.97879 65.447 8.98541 89.6087 16.9986L102.745 21.3554C126.907 29.3686 138.988 33.3752 144.005 43.3707C149.021 53.3662 145.015 65.4471 137.001 89.6088L132.645 102.745C124.631 126.907 120.625 138.988 110.629 144.005C100.634 149.021 88.5529 145.015 64.3912 137.001L51.2547 132.645C27.093 124.631 15.0121 120.625 9.99544 110.629C4.97876 100.634 8.98538 88.5529 16.9986 64.3912L21.3553 51.2547Z" fill="#FF577F"/>
<path fill-rule="evenodd" clip-rule="evenodd" d="M38.8826 40.5503C39.5468 40.0632 40.4799 40.2068 40.9669 40.8709C44.3678 45.5084 55.6846 54.9502 73.001 54.1806C73.8237 54.144 74.5203 54.7814 74.5569 55.6041C74.5935 56.4268 73.9562 57.1234 73.1334 57.16C54.6618 57.981 42.4513 47.9382 38.562 42.6346C38.075 41.9705 38.2185 41.0373 38.8826 40.5503Z" fill="black"/>
<path fill-rule="evenodd" clip-rule="evenodd" d="M115.702 40.5503C115.038 40.0632 114.105 40.2068 113.618 40.8709C110.217 45.5084 98.8999 54.9502 81.5835 54.1806C80.7607 54.144 80.0641 54.7814 80.0276 55.6041C79.991 56.4268 80.6283 57.1234 81.4511 57.16C99.9227 57.981 112.133 47.9382 116.022 42.6346C116.51 41.9705 116.366 41.0373 115.702 40.5503Z" fill="black"/>
<path d="M114.82 60.097C116.477 67.7341 115.814 84.4995 99.9082 84.4995C83.9578 84.4995 81.6829 68.4748 82.5113 59.7169L75.0555 59.6292C75.7182 68.2507 72.8684 85.3942 56.1673 84.9966C39.4663 84.5989 38.2733 67.6425 39.7645 59.214L75.0555 59.6292L82.5113 59.7169L114.82 60.097Z" fill="white"/>
<path fill-rule="evenodd" clip-rule="evenodd" d="M33.3028 59.1379C33.3093 58.5889 33.7595 58.1491 34.3085 58.1556L118.808 59.1497C119.357 59.1562 119.797 59.6064 119.79 60.1554C119.784 60.7044 119.334 61.1442 118.785 61.1378L116.023 61.1053C116.677 65.0504 116.716 70.6602 114.88 75.5139C113.856 78.2198 112.235 80.7281 109.775 82.5581C107.307 84.3939 104.068 85.4936 99.9082 85.4936C95.7462 85.4936 92.4157 84.4455 89.7905 82.6843C87.171 80.927 85.3116 78.4989 84.0222 75.8241C81.6554 70.9144 81.1665 65.0904 81.4378 60.6984L76.1096 60.6357C76.2861 65.0167 75.6123 71.0545 73.0079 76.1476C71.588 78.9244 69.5798 81.4472 66.7976 83.2476C64.0084 85.0526 60.4985 86.0941 56.1436 85.9904C51.7929 85.8868 48.3843 84.7002 45.7632 82.7887C43.1476 80.8813 41.3784 78.2979 40.2245 75.4953C38.1253 70.3964 38.0219 64.4789 38.6055 60.1945L34.2852 60.1437C33.7362 60.1372 33.2963 59.6869 33.3028 59.1379ZM40.6098 60.2181C40.0194 64.2877 40.0968 69.9625 42.063 74.7384C43.1087 77.2782 44.676 79.5351 46.9346 81.1823C49.1877 82.8254 52.1912 83.9075 56.191 84.0027C60.1867 84.0978 63.2958 83.1455 65.7175 81.5784C68.1461 80.0068 69.9404 77.7795 71.2377 75.2424C73.6638 70.498 74.3011 64.7652 74.1187 60.6123L40.6098 60.2181ZM83.4285 60.7218C83.1565 64.9105 83.6236 70.4187 85.8132 74.9607C86.9827 77.3868 88.631 79.5122 90.8982 81.0332C93.1597 82.5504 96.095 83.5054 99.9082 83.5054C103.701 83.5054 106.509 82.5094 108.588 80.963C110.674 79.4108 112.097 77.2505 113.02 74.8104C114.754 70.2274 114.672 64.7912 114.002 61.0815L83.4285 60.7218Z" fill="black"/>
<path fill-rule="evenodd" clip-rule="evenodd" d="M106.009 106.595C85.2599 91.9943 61.3883 100.481 52.0139 106.623C51.325 107.074 50.4007 106.882 49.9494 106.193C49.498 105.504 49.6906 104.58 50.3795 104.129C60.2245 97.6783 85.5283 88.5364 107.725 104.156C108.399 104.63 108.56 105.56 108.086 106.234C107.612 106.908 106.682 107.069 106.009 106.595Z" fill="black"/>
<path fill-rule="evenodd" clip-rule="evenodd" d="M49.8596 96.1748C50.2745 96.5344 50.3194 97.1622 49.9598 97.5771C48.9833 98.7038 47.7909 100.745 47.4461 103.12C47.108 105.45 47.5769 108.122 49.937 110.664C50.3106 111.067 50.2873 111.696 49.885 112.069C49.4827 112.443 48.8537 112.419 48.4801 112.017C45.6709 108.992 45.0628 105.699 45.4785 102.835C45.8876 100.016 47.2799 97.6335 48.4573 96.2749C48.8169 95.86 49.4447 95.8152 49.8596 96.1748Z" fill="black"/>
<path fill-rule="evenodd" clip-rule="evenodd" d="M108.701 96.6716C108.286 97.0312 108.241 97.659 108.601 98.0739C109.577 99.2006 110.77 101.242 111.115 103.617C111.453 105.947 110.984 108.619 108.624 111.161C108.25 111.563 108.273 112.192 108.676 112.566C109.078 112.94 109.707 112.916 110.081 112.514C112.89 109.489 113.498 106.196 113.082 103.332C112.673 100.513 111.281 98.1304 110.103 96.7718C109.744 96.3569 109.116 96.312 108.701 96.6716Z" fill="black"/>
<path d="M66.6056 65.6114C66.6056 69.4546 63.49 72.5702 59.6468 72.5702C55.8035 72.5702 52.688 69.4546 52.688 65.6114C52.688 61.7681 55.8035 58.6526 59.6468 58.6526C63.49 58.6526 66.6056 61.7681 66.6056 65.6114Z" fill="black"/>
<path d="M102.394 65.6114C102.394 69.4546 99.2781 72.5702 95.4349 72.5702C91.5916 72.5702 88.4761 69.4546 88.4761 65.6114C88.4761 61.7681 91.5916 58.6526 95.4349 58.6526C99.2781 58.6526 102.394 61.7681 102.394 65.6114Z" fill="black"/>
<path d="M63.6232 65.6113C63.6232 66.7093 62.733 67.5995 61.635 67.5995C60.5369 67.5995 59.6467 66.7093 59.6467 65.6113C59.6467 64.5132 60.5369 63.623 61.635 63.623C62.733 63.623 63.6232 64.5132 63.6232 65.6113Z" fill="white"/>
<path d="M99.4113 65.6113C99.4113 66.7093 98.5211 67.5995 97.423 67.5995C96.325 67.5995 95.4348 66.7093 95.4348 65.6113C95.4348 64.5132 96.325 63.623 97.423 63.623C98.5211 63.623 99.4113 64.5132 99.4113 65.6113Z" fill="white"/>
<path fill-rule="evenodd" clip-rule="evenodd" d="M79.2988 107.023C76.4542 107.326 73.6918 108.372 72.0374 109.239C71.551 109.494 70.9502 109.306 70.6955 108.819C70.4407 108.333 70.6285 107.732 71.1148 107.478C72.9398 106.522 75.9432 105.381 79.0882 105.046C82.2199 104.712 85.6922 105.163 88.1848 107.655C88.5731 108.043 88.5731 108.673 88.1848 109.061C87.7966 109.449 87.1672 109.449 86.7789 109.061C84.8975 107.18 82.1566 106.719 79.2988 107.023Z" fill="black"/>
<path d="M71.079 71.6098C71.079 75.7275 66.7695 82.545 57.1614 82.545C47.5534 82.545 42.7468 75.7275 42.7468 71.6098C42.7468 67.492 47.5534 77.0774 57.1614 77.0774C66.7695 77.0774 71.079 67.492 71.079 71.6098Z" fill="#DFECF1"/>
<path d="M113.329 71.6069C113.329 75.7131 109.246 82.5114 100.144 82.5114C91.0414 82.5114 86.4878 75.7131 86.4878 71.6069C86.4878 67.5007 91.0414 77.0591 100.144 77.0591C109.246 77.0591 113.329 67.5007 113.329 71.6069Z" fill="#DFECF1"/>
</svg>
