<svg width="132" height="132" viewBox="0 0 132 132" fill="none" xmlns="http://www.w3.org/2000/svg">
<path d="M4.38097 63.7511C2.31576 38.3792 1.28316 25.6933 8.5237 17.1706C15.7642 8.64787 28.4503 7.61673 53.8225 5.55445L68.249 4.38186C93.6211 2.31959 106.307 1.28845 114.831 8.52983C123.355 15.7712 124.387 28.4572 126.452 53.8291L127.627 68.2555C129.692 93.6273 130.724 106.313 123.484 114.836C116.243 123.359 103.557 124.39 78.1851 126.452L63.7587 127.625C38.3865 129.687 25.7005 130.718 17.1768 123.477C8.65306 116.235 7.62045 103.549 5.55524 78.1775L4.38097 63.7511Z" fill="#579AFF"/>
<path d="M47.7336 86.7056C47.7336 77.3235 55.3393 69.7178 64.7215 69.7178C74.1036 69.7178 81.7093 77.3235 81.7093 86.7056V95.6992C81.7093 105.081 74.1036 112.687 64.7215 112.687C55.3393 112.687 47.7336 105.081 47.7336 95.6992V86.7056Z" fill="black"/>
<path d="M50.7315 101.445C50.7315 104.007 57.2187 104.693 65.2211 104.693C73.2235 104.693 79.7107 103.543 79.7107 100.981C79.7107 98.4186 73.2235 91.7019 65.2211 91.7019C57.2187 91.7019 50.7315 98.8826 50.7315 101.445Z" fill="#DE3D3D"/>
<path d="M79.7107 80.886C79.7107 83.3278 73.2235 79.5596 65.2211 79.5596C57.2187 79.5596 50.7314 82.8856 50.7314 80.4438C50.7314 78.002 57.2187 70.717 65.2211 70.717C73.2235 70.717 79.7107 78.4442 79.7107 80.886Z" fill="white"/>
<path d="M79.7107 100.52C79.7107 98.0778 73.2235 101.846 65.2211 101.846C57.2187 101.846 50.7314 98.5199 50.7314 100.962C50.7314 103.403 57.2187 110.688 65.2211 110.688C73.2235 110.688 79.7107 102.961 79.7107 100.52Z" fill="white"/>
<path fill-rule="evenodd" clip-rule="evenodd" d="M43.9975 93.7112C44.5435 93.7915 44.921 94.2993 44.8407 94.8453C44.5861 96.5758 44.7721 99.5104 45.65 102.467C46.5291 105.427 48.0498 108.234 50.3189 109.879C50.7656 110.203 50.8652 110.828 50.5413 111.275C50.2173 111.722 49.5925 111.821 49.1457 111.497C46.3745 109.488 44.6752 106.204 43.7342 103.036C42.792 99.8631 42.558 96.6307 42.8634 94.5544C42.9437 94.0084 43.4515 93.6309 43.9975 93.7112Z" fill="black"/>
<path fill-rule="evenodd" clip-rule="evenodd" d="M85.4454 93.7112C84.8994 93.7915 84.5218 94.2993 84.6022 94.8453C84.8567 96.5758 84.6708 99.5104 83.7928 102.467C82.9138 105.427 81.3931 108.234 79.124 109.879C78.6772 110.203 78.5776 110.828 78.9016 111.275C79.2256 111.722 79.8504 111.821 80.2972 111.497C83.0683 109.488 84.7677 106.204 85.7087 103.036C86.6509 99.8631 86.8849 96.6307 86.5795 94.5544C86.4991 94.0084 85.9914 93.6309 85.4454 93.7112Z" fill="black"/>
<path fill-rule="evenodd" clip-rule="evenodd" d="M44.0248 26.6899C40.8938 28.6118 37.8258 32.0215 35.9603 34.6181C35.4772 35.2904 34.5406 35.4438 33.8683 34.9608C33.196 34.4778 33.0426 33.5412 33.5256 32.8689C35.5035 30.1159 38.8463 26.351 42.4566 24.135C44.2611 23.0273 46.2759 22.2173 48.3071 22.2528C50.4291 22.29 52.3759 23.248 53.9234 25.2843C54.4243 25.9434 54.2961 26.8838 53.637 27.3847C52.9779 27.8856 52.0375 27.7573 51.5366 27.0982C50.5014 25.736 49.3889 25.2701 48.2546 25.2502C47.0294 25.2288 45.5909 25.7286 44.0248 26.6899Z" fill="black"/>
<path fill-rule="evenodd" clip-rule="evenodd" d="M85.418 26.6899C88.5491 28.6118 91.6171 32.0215 93.4826 34.6181C93.9656 35.2904 94.9022 35.4438 95.5745 34.9608C96.2468 34.4778 96.4003 33.5412 95.9173 32.8689C93.9394 30.1159 90.5966 26.351 86.9863 24.135C85.1817 23.0273 83.1669 22.2173 81.1358 22.2528C79.0138 22.29 77.067 23.248 75.5194 25.2843C75.0185 25.9434 75.1468 26.8838 75.8059 27.3847C76.465 27.8856 77.4053 27.7573 77.9062 27.0982C78.9415 25.736 80.054 25.2701 81.1883 25.2502C82.4135 25.2288 83.852 25.7286 85.418 26.6899Z" fill="black"/>
<path d="M64.7214 53.2296C64.7214 61.7839 57.7868 68.7185 49.2325 68.7185C40.6783 68.7185 33.7437 61.7839 33.7437 53.2296C33.7437 44.6753 40.6783 37.7407 49.2325 37.7407C57.7868 37.7407 64.7214 44.6753 64.7214 53.2296Z" fill="white"/>
<path fill-rule="evenodd" clip-rule="evenodd" d="M49.2325 66.7199C56.6831 66.7199 62.7229 60.6801 62.7229 53.2296C62.7229 45.7791 56.6831 39.7393 49.2325 39.7393C41.782 39.7393 35.7422 45.7791 35.7422 53.2296C35.7422 60.6801 41.782 66.7199 49.2325 66.7199ZM49.2325 68.7185C57.7868 68.7185 64.7214 61.7839 64.7214 53.2296C64.7214 44.6753 57.7868 37.7407 49.2325 37.7407C40.6783 37.7407 33.7437 44.6753 33.7437 53.2296C33.7437 61.7839 40.6783 68.7185 49.2325 68.7185Z" fill="black"/>
<path d="M66.72 53.2296C66.72 61.7839 73.6546 68.7185 82.2089 68.7185C90.7631 68.7185 97.6978 61.7839 97.6978 53.2296C97.6978 44.6753 90.7631 37.7407 82.2089 37.7407C73.6546 37.7407 66.72 44.6753 66.72 53.2296Z" fill="white"/>
<path fill-rule="evenodd" clip-rule="evenodd" d="M82.2089 66.7199C74.7584 66.7199 68.7185 60.6801 68.7185 53.2296C68.7185 45.7791 74.7584 39.7393 82.2089 39.7393C89.6594 39.7393 95.6992 45.7791 95.6992 53.2296C95.6992 60.6801 89.6594 66.7199 82.2089 66.7199ZM82.2089 68.7185C73.6546 68.7185 66.72 61.7839 66.72 53.2296C66.72 44.6753 73.6546 37.7407 82.2089 37.7407C90.7631 37.7407 97.6978 44.6753 97.6978 53.2296C97.6978 61.7839 90.7631 68.7185 82.2089 68.7185Z" fill="black"/>
<path d="M55.7279 53.2294C55.7279 55.7129 53.7146 57.7262 51.2311 57.7262C48.7476 57.7262 46.7344 55.7129 46.7344 53.2294C46.7344 50.7459 48.7476 48.7327 51.2311 48.7327C53.7146 48.7327 55.7279 50.7459 55.7279 53.2294Z" fill="black"/>
<path d="M75.7135 53.2294C75.7135 55.7129 77.7268 57.7262 80.2103 57.7262C82.6938 57.7262 84.707 55.7129 84.707 53.2294C84.707 50.7459 82.6938 48.7327 80.2103 48.7327C77.7268 48.7327 75.7135 50.7459 75.7135 53.2294Z" fill="black"/>
<path d="M53.7293 53.2296C53.7293 54.0575 53.0582 54.7286 52.2304 54.7286C51.4025 54.7286 50.7314 54.0575 50.7314 53.2296C50.7314 52.4018 51.4025 51.7307 52.2304 51.7307C53.0582 51.7307 53.7293 52.4018 53.7293 53.2296Z" fill="white"/>
<path d="M77.7121 53.2296C77.7121 54.0575 78.3832 54.7286 79.211 54.7286C80.0389 54.7286 80.71 54.0575 80.71 53.2296C80.71 52.4018 80.0389 51.7307 79.211 51.7307C78.3832 51.7307 77.7121 52.4018 77.7121 53.2296Z" fill="white"/>
<path d="M60.7243 55.6729C60.7243 59.4564 57.2283 65.7206 49.4341 65.7206C41.6399 65.7206 37.7407 59.4564 37.7407 55.6729C37.7407 51.8893 41.6399 60.6967 49.4341 60.6967C57.2283 60.6967 60.7243 51.8893 60.7243 55.6729Z" fill="#DFECF1"/>
<path d="M70.7172 55.6729C70.7172 59.4564 74.2131 65.7206 82.0073 65.7206C89.8015 65.7206 93.7007 59.4564 93.7007 55.6729C93.7007 51.8893 89.8015 60.6967 82.0073 60.6967C74.2131 60.6967 70.7172 51.8893 70.7172 55.6729Z" fill="#DFECF1"/>
</svg>
