<svg width="146" height="146" viewBox="0 0 146 146" fill="none" xmlns="http://www.w3.org/2000/svg">
<path d="M11.9958 79.7425C6.34091 54.9227 3.51348 42.5128 9.46727 33.0456C15.421 23.5783 27.8309 20.7509 52.6507 15.096L66.2576 11.9959C91.0774 6.34101 103.487 3.51358 112.955 9.46736C122.422 15.4211 125.249 27.831 130.904 52.6509L134.004 66.2577C139.659 91.0775 142.487 103.487 136.533 112.955C130.579 122.422 118.169 125.249 93.3493 130.904L79.7424 134.004C54.9226 139.659 42.5127 142.487 33.0455 136.533C23.5782 130.579 20.7508 118.169 15.0959 93.3493L11.9958 79.7425Z" fill="#7EBC60"/>
<path d="M70.7305 51.8243C70.7305 61.1667 63.157 68.7402 53.8146 68.7402C44.4722 68.7402 36.8987 61.1667 36.8987 51.8243C36.8987 42.482 44.4722 34.9084 53.8146 34.9084C63.157 34.9084 70.7305 42.482 70.7305 51.8243Z" fill="white"/>
<path fill-rule="evenodd" clip-rule="evenodd" d="M53.8146 66.7501C62.0579 66.7501 68.7404 60.0676 68.7404 51.8243C68.7404 43.5811 62.0579 36.8986 53.8146 36.8986C45.5713 36.8986 38.8888 43.5811 38.8888 51.8243C38.8888 60.0676 45.5713 66.7501 53.8146 66.7501ZM53.8146 68.7402C63.157 68.7402 70.7305 61.1667 70.7305 51.8243C70.7305 42.482 63.157 34.9084 53.8146 34.9084C44.4722 34.9084 36.8987 42.482 36.8987 51.8243C36.8987 61.1667 44.4722 68.7402 53.8146 68.7402Z" fill="black"/>
<path d="M74.7107 51.8243C74.7107 61.1667 82.2842 68.7402 91.6266 68.7402C100.969 68.7402 108.542 61.1667 108.542 51.8243C108.542 42.482 100.969 34.9084 91.6266 34.9084C82.2842 34.9084 74.7107 42.482 74.7107 51.8243Z" fill="white"/>
<path fill-rule="evenodd" clip-rule="evenodd" d="M91.6266 66.7501C83.3833 66.7501 76.7008 60.0676 76.7008 51.8243C76.7008 43.5811 83.3833 36.8986 91.6266 36.8986C99.8699 36.8986 106.552 43.5811 106.552 51.8243C106.552 60.0676 99.8699 66.7501 91.6266 66.7501ZM91.6266 68.7402C82.2842 68.7402 74.7107 61.1667 74.7107 51.8243C74.7107 42.482 82.2842 34.9084 91.6266 34.9084C100.969 34.9084 108.542 42.482 108.542 51.8243C108.542 61.1667 100.969 68.7402 91.6266 68.7402Z" fill="black"/>
<path d="M65.755 45.3565C65.755 48.9286 62.8593 51.8244 59.2872 51.8244C55.7151 51.8244 52.8193 48.9286 52.8193 45.3565C52.8193 41.7844 55.7151 38.8887 59.2872 38.8887C62.8593 38.8887 65.755 41.7844 65.755 45.3565Z" fill="black"/>
<path d="M79.6859 45.3565C79.6859 48.9286 82.5816 51.8244 86.1537 51.8244C89.7258 51.8244 92.6216 48.9286 92.6216 45.3565C92.6216 41.7844 89.7258 38.8887 86.1537 38.8887C82.5816 38.8887 79.6859 41.7844 79.6859 45.3565Z" fill="black"/>
<path d="M62.7701 41.3764C62.7701 42.2007 62.1018 42.8689 61.2775 42.8689C60.4532 42.8689 59.7849 42.2007 59.7849 41.3764C59.7849 40.552 60.4532 39.8838 61.2775 39.8838C62.1018 39.8838 62.7701 40.552 62.7701 41.3764Z" fill="white"/>
<path d="M82.6711 41.3764C82.6711 42.2007 83.3393 42.8689 84.1637 42.8689C84.988 42.8689 85.6562 42.2007 85.6562 41.3764C85.6562 40.552 84.988 39.8838 84.1637 39.8838C83.3393 39.8838 82.6711 40.552 82.6711 41.3764Z" fill="white"/>
<path d="M66.7501 55.6644C66.7501 59.0895 62.9663 64.7601 54.5302 64.7601C46.094 64.7601 41.8738 59.0895 41.8738 55.6644C41.8738 52.2394 46.094 60.2123 54.5302 60.2123C62.9663 60.2123 66.7501 52.2394 66.7501 55.6644Z" fill="#DFECF1"/>
<path d="M78.6908 55.6644C78.6908 59.0895 82.4746 64.7601 90.9108 64.7601C99.3469 64.7601 103.567 59.0895 103.567 55.6644C103.567 52.2394 99.3469 60.2123 90.9108 60.2123C82.4746 60.2123 78.6908 52.2394 78.6908 55.6644Z" fill="#DFECF1"/>
<path fill-rule="evenodd" clip-rule="evenodd" d="M45.4773 33.4036C40.8765 39.045 37.7814 48.2531 36.3704 55.1104C36.2042 55.9178 35.415 56.4377 34.6076 56.2715C33.8002 56.1054 33.2803 55.3161 33.4465 54.5087C34.891 47.4886 38.1082 37.7161 43.1639 31.517C45.7024 28.4044 48.8479 26.019 52.6227 25.5419C56.4389 25.0596 60.5089 26.5733 64.7662 30.4245C65.3776 30.9775 65.4248 31.9214 64.8718 32.5327C64.3189 33.144 63.375 33.1913 62.7637 32.6383C58.9051 29.1479 55.667 28.166 52.997 28.5035C50.2858 28.8462 47.767 30.596 45.4773 33.4036Z" fill="black"/>
<path fill-rule="evenodd" clip-rule="evenodd" d="M99.9636 33.4036C104.564 39.045 107.66 48.2531 109.071 55.1104C109.237 55.9178 110.026 56.4377 110.833 56.2715C111.641 56.1054 112.161 55.3161 111.994 54.5087C110.55 47.4886 107.333 37.7161 102.277 31.517C99.7385 28.4044 96.5931 26.019 92.8182 25.5419C89.002 25.0596 84.9321 26.5733 80.6747 30.4245C80.0634 30.9775 80.0161 31.9214 80.5691 32.5327C81.1221 33.144 82.0659 33.1913 82.6773 32.6383C86.5358 29.1479 89.7739 28.166 92.4439 28.5035C95.1552 28.8462 97.6739 30.596 99.9636 33.4036Z" fill="black"/>
<path d="M106.552 99.7442C106.552 109.505 91.7649 107.143 72.4964 107.143C51.3284 107.143 38.8887 109.712 38.8887 101.903C38.8887 92.4494 52.3436 72.7205 71.1521 72.7205C89.9607 72.7205 106.552 89.9832 106.552 99.7442Z" fill="black"/>
<path fill-rule="evenodd" clip-rule="evenodd" d="M36.1438 100.685C36.6364 100.928 36.8384 101.525 36.5949 102.018C35.9579 103.307 35.5954 105.127 36.2519 106.584C36.8617 107.939 38.5454 109.375 42.9061 109.538C43.4553 109.559 43.8838 110.021 43.8632 110.57C43.8426 111.119 43.3807 111.547 42.8316 111.527C38.0873 111.349 35.4855 109.729 34.4373 107.402C33.4357 105.178 34.0428 102.69 34.8108 101.136C35.0543 100.644 35.6511 100.442 36.1438 100.685Z" fill="black"/>
<path fill-rule="evenodd" clip-rule="evenodd" d="M109.155 100.707C108.675 100.974 108.502 101.58 108.769 102.061C109.483 103.345 109.873 105.124 109.154 106.543C108.467 107.9 106.527 109.372 101.544 109.538C100.995 109.556 100.564 110.016 100.582 110.566C100.601 111.115 101.061 111.545 101.61 111.527C106.87 111.352 109.751 109.768 110.929 107.443C112.076 105.18 111.375 102.652 110.508 101.093C110.241 100.613 109.635 100.44 109.155 100.707Z" fill="black"/>
<path d="M55.7825 110.875C56.4861 109.469 56.6619 107.653 56.6619 106.921C57.0137 100.243 63.5508 101.209 66.7754 102.527C70.2931 103.406 72.5796 104.636 76.4491 102.527C81.286 99.8912 88.7611 103.406 87.442 106.481C86.3867 108.942 87.0023 110.729 87.442 111.314C92.7185 115.708 92.2788 121.42 90.0802 122.738C87.8817 124.056 69.8534 125.374 57.9811 123.616C46.1088 121.859 54.9031 112.632 55.7825 110.875Z" fill="#FF5757"/>
<path fill-rule="evenodd" clip-rule="evenodd" d="M72.7204 104.065C72.9952 104.065 73.218 104.287 73.218 104.562V115.508C73.218 115.783 72.9952 116.005 72.7204 116.005C72.4457 116.005 72.2229 115.783 72.2229 115.508V104.562C72.2229 104.287 72.4457 104.065 72.7204 104.065Z" fill="#FF8484"/>
</svg>
